<mxfile host="Electron" modified="2023-10-06T06:42:11.517Z" agent="Mozilla/5.0 (Windows NT 10.0; Win64; x64) AppleWebKit/537.36 (KHTML, like Gecko) draw.io/22.0.0 Chrome/114.0.5735.289 Electron/25.8.3 Safari/537.36" etag="SMTys04SrViy_mWG6FEO" version="22.0.0" type="device">
  <diagram name="Page-1" id="XRhMNDew0ddeSEFcA10z">
    <mxGraphModel dx="1036" dy="606" grid="1" gridSize="10" guides="1" tooltips="1" connect="1" arrows="1" fold="1" page="1" pageScale="1" pageWidth="850" pageHeight="1100" math="0" shadow="0">
      <root>
        <mxCell id="0" />
        <mxCell id="1" parent="0" />
        <mxCell id="_W0Cz73eyRHgDrOCuIBR-1" value="" style="endArrow=none;html=1;rounded=0;strokeWidth=6;" edge="1" parent="1" source="_W0Cz73eyRHgDrOCuIBR-6">
          <mxGeometry width="50" height="50" relative="1" as="geometry">
            <mxPoint x="80" y="320" as="sourcePoint" />
            <mxPoint x="720" y="320" as="targetPoint" />
          </mxGeometry>
        </mxCell>
        <mxCell id="_W0Cz73eyRHgDrOCuIBR-2" value="" style="endArrow=none;html=1;rounded=0;" edge="1" parent="1">
          <mxGeometry width="50" height="50" relative="1" as="geometry">
            <mxPoint x="240" y="500" as="sourcePoint" />
            <mxPoint x="240" y="200" as="targetPoint" />
          </mxGeometry>
        </mxCell>
        <mxCell id="_W0Cz73eyRHgDrOCuIBR-3" value="" style="endArrow=none;html=1;rounded=0;" edge="1" parent="1">
          <mxGeometry width="50" height="50" relative="1" as="geometry">
            <mxPoint x="600" y="500" as="sourcePoint" />
            <mxPoint x="600" y="200" as="targetPoint" />
          </mxGeometry>
        </mxCell>
        <mxCell id="_W0Cz73eyRHgDrOCuIBR-5" value="" style="endArrow=none;html=1;rounded=0;strokeWidth=6;" edge="1" parent="1" target="_W0Cz73eyRHgDrOCuIBR-4">
          <mxGeometry width="50" height="50" relative="1" as="geometry">
            <mxPoint x="80" y="320" as="sourcePoint" />
            <mxPoint x="720" y="320" as="targetPoint" />
          </mxGeometry>
        </mxCell>
        <mxCell id="_W0Cz73eyRHgDrOCuIBR-4" value="" style="ellipse;whiteSpace=wrap;html=1;aspect=fixed;" vertex="1" parent="1">
          <mxGeometry x="190" y="310" width="20" height="20" as="geometry" />
        </mxCell>
        <mxCell id="_W0Cz73eyRHgDrOCuIBR-7" value="" style="endArrow=none;html=1;rounded=0;strokeWidth=6;" edge="1" parent="1" source="_W0Cz73eyRHgDrOCuIBR-4" target="_W0Cz73eyRHgDrOCuIBR-6">
          <mxGeometry width="50" height="50" relative="1" as="geometry">
            <mxPoint x="210" y="320" as="sourcePoint" />
            <mxPoint x="720" y="320" as="targetPoint" />
          </mxGeometry>
        </mxCell>
        <mxCell id="_W0Cz73eyRHgDrOCuIBR-6" value="" style="ellipse;whiteSpace=wrap;html=1;aspect=fixed;" vertex="1" parent="1">
          <mxGeometry x="550" y="310" width="20" height="20" as="geometry" />
        </mxCell>
        <mxCell id="_W0Cz73eyRHgDrOCuIBR-9" value="OLD MAN dirige-se à avenida diariamente" style="text;html=1;strokeColor=none;fillColor=none;align=center;verticalAlign=middle;whiteSpace=wrap;rounded=0;" vertex="1" parent="1">
          <mxGeometry x="90" y="324" width="100" height="60" as="geometry" />
        </mxCell>
        <mxCell id="_W0Cz73eyRHgDrOCuIBR-10" value="Morte de FLOURIST" style="text;html=1;strokeColor=none;fillColor=none;align=center;verticalAlign=middle;whiteSpace=wrap;rounded=0;" vertex="1" parent="1">
          <mxGeometry x="150" y="260" width="100" height="60" as="geometry" />
        </mxCell>
        <mxCell id="_W0Cz73eyRHgDrOCuIBR-11" value="OLD MAN continua a sua rotina à avenida, apoiando algumas personagens e sendo apoiado por outras" style="text;html=1;strokeColor=none;fillColor=none;align=center;verticalAlign=middle;whiteSpace=wrap;rounded=0;" vertex="1" parent="1">
          <mxGeometry x="250" y="360" width="100" height="60" as="geometry" />
        </mxCell>
        <mxCell id="_W0Cz73eyRHgDrOCuIBR-12" value="ATHLETIC MAN, personagem que ajuda o protagonista no dia III, sugere-lhe ingressar num ginásio" style="text;html=1;strokeColor=none;fillColor=none;align=center;verticalAlign=middle;whiteSpace=wrap;rounded=0;" vertex="1" parent="1">
          <mxGeometry x="350" y="230" width="100" height="60" as="geometry" />
        </mxCell>
        <mxCell id="_W0Cz73eyRHgDrOCuIBR-13" value="Estado psicológico do OLD MAN deterioriza-se drasticamente" style="text;html=1;strokeColor=none;fillColor=none;align=center;verticalAlign=middle;whiteSpace=wrap;rounded=0;" vertex="1" parent="1">
          <mxGeometry x="440" y="336" width="100" height="60" as="geometry" />
        </mxCell>
        <mxCell id="_W0Cz73eyRHgDrOCuIBR-14" value="&quot;Suicídio&quot;&lt;sup&gt;1&lt;/sup&gt;&amp;nbsp;do OLD MAN" style="text;html=1;strokeColor=none;fillColor=none;align=center;verticalAlign=middle;whiteSpace=wrap;rounded=0;" vertex="1" parent="1">
          <mxGeometry x="510" y="260" width="100" height="60" as="geometry" />
        </mxCell>
        <mxCell id="_W0Cz73eyRHgDrOCuIBR-15" value="OLD MAN acorda ao lado de alguém" style="text;html=1;strokeColor=none;fillColor=none;align=center;verticalAlign=middle;whiteSpace=wrap;rounded=0;" vertex="1" parent="1">
          <mxGeometry x="610" y="322" width="100" height="60" as="geometry" />
        </mxCell>
        <mxCell id="_W0Cz73eyRHgDrOCuIBR-16" value="APRESENTAÇÃO" style="text;html=1;strokeColor=none;fillColor=none;align=center;verticalAlign=middle;whiteSpace=wrap;rounded=0;" vertex="1" parent="1">
          <mxGeometry x="110" y="450" width="60" height="30" as="geometry" />
        </mxCell>
        <mxCell id="_W0Cz73eyRHgDrOCuIBR-17" value="CONFRONTO" style="text;html=1;strokeColor=none;fillColor=none;align=center;verticalAlign=middle;whiteSpace=wrap;rounded=0;" vertex="1" parent="1">
          <mxGeometry x="370" y="450" width="60" height="30" as="geometry" />
        </mxCell>
        <mxCell id="_W0Cz73eyRHgDrOCuIBR-18" value="RESOLUÇÃO" style="text;html=1;strokeColor=none;fillColor=none;align=center;verticalAlign=middle;whiteSpace=wrap;rounded=0;" vertex="1" parent="1">
          <mxGeometry x="630" y="450" width="60" height="30" as="geometry" />
        </mxCell>
      </root>
    </mxGraphModel>
  </diagram>
</mxfile>
